<?xml version="1.0" encoding="UTF-8"?>
<svg version="1.1" xmlns="http://www.w3.org/2000/svg" width="500" height="500">
<path d="M0 0 C1.76949095 -0.10815225 3.54087487 -0.18566083 5.3125 -0.25 C6.29863281 -0.29640625 7.28476562 -0.3428125 8.30078125 -0.390625 C11 0 11 0 12.75683594 1.76879883 C13.89932067 3.81930314 14.80495512 5.7363809 15.578125 7.94921875 C15.84818359 8.70581787 16.11824219 9.46241699 16.39648438 10.24194336 C16.67814453 11.04897705 16.95980469 11.85601074 17.25 12.6875 C19.51206416 19.01127158 21.88114508 25.25304718 24.5 31.4375 C27.05846387 37.50895077 29.31188843 43.63943189 31.4375 49.875 C34.00315364 57.38488201 36.88087156 64.69194692 40.01269531 71.98242188 C43.21842948 79.45106732 46.17287524 87.00611109 49.07910156 94.59545898 C50.18388787 97.48014625 51.29309282 100.36312036 52.40234375 103.24609375 C54.07910096 107.60509442 55.75491658 111.96445456 57.4296875 116.32421875 C59.94995468 122.88403425 62.47439007 129.44223997 65 136 C65.33854004 136.88010742 65.67708008 137.76021484 66.02587891 138.66699219 C68.81156017 145.90362826 71.61825588 153.12323049 74.61865234 160.27392578 C77.86353328 168.0095062 80.72431773 175.81753508 83.44091797 183.75366211 C85.56542623 189.90421515 87.97546265 195.8351173 90.60546875 201.7890625 C92.42188341 205.97139542 94.02758636 210.21984495 95.62890625 214.48828125 C96.67254087 217.16129413 97.75957226 219.78761916 98.90234375 222.41796875 C99.22855713 223.17746826 99.55477051 223.93696777 99.89086914 224.71948242 C100.53411429 226.2100686 101.18784259 227.69618601 101.85327148 229.17700195 C103.56506045 233.1689822 104.45543142 235.81359051 103 240 C94.74263207 240.32381835 94.74263207 240.32381835 91 238 C89.31413712 235.15006053 88.24463117 232.10806611 87.125 229 C86.78476807 228.10152344 86.44453613 227.20304688 86.09399414 226.27734375 C85.39084921 224.41927713 84.69468043 222.55855617 84.00537109 220.6953125 C83.0905344 218.24271485 82.14436114 215.80677631 81.17578125 213.375 C77.6979135 204.6381776 74.49414216 195.82784765 71.42919922 186.93798828 C69.64708495 181.78386434 67.76405252 176.70040802 65.62890625 171.6796875 C65 170 65 170 65 168 C64.03977936 168.00222061 63.07955872 168.00444122 62.09024048 168.00672913 C53.05515275 168.02697278 44.0200696 168.04197806 34.98496437 168.05181217 C30.33957603 168.05703788 25.69420595 168.06412989 21.04882812 168.07543945 C16.56847325 168.08627939 12.08813598 168.0922792 7.60776901 168.09487724 C5.89569191 168.09672949 4.18361581 168.10034629 2.47154617 168.10573006 C0.07947941 168.11295514 -2.31251398 168.11399032 -4.70458984 168.11352539 C-5.41740616 168.11712067 -6.13022247 168.12071594 -6.86463928 168.12442017 C-11.77189568 168.11405216 -11.77189568 168.11405216 -14 167 C-13.56429687 168.0415625 -13.12859375 169.083125 -12.6796875 170.15625 C-7.55700934 182.46197122 -2.79976656 194.86468769 1.625 207.4375 C3.2450886 212.00790969 5.00772979 216.43811591 7.01953125 220.84765625 C12.61727133 233.13592233 12.61727133 233.13592233 12 239 C8.37 239 4.74 239 1 239 C-2.41855178 232.68882749 -4.89586326 226.11823522 -7.3671875 219.3984375 C-8.9914836 214.98907262 -10.71233634 210.62063912 -12.4375 206.25 C-15.33029106 198.89595009 -17.98577032 191.47393737 -20.51538086 183.98730469 C-22.40563037 178.4574833 -24.60518153 173.38834155 -27 168 C-36.57 168 -46.14 168 -56 168 C-56.33 169.32 -56.66 170.64 -57 172 C-60.79091143 182.78521295 -65.12481265 193.37472975 -69.38525391 203.98022461 C-72.32370611 211.29624574 -75.19993832 218.62983766 -78 226 C-78.93662822 228.43783512 -79.87412672 230.87533606 -80.8125 233.3125 C-81.44091797 234.94638672 -81.44091797 234.94638672 -82.08203125 236.61328125 C-82.38496094 237.40089844 -82.68789062 238.18851563 -83 239 C-84.41543415 239.19658808 -85.83244031 239.38187546 -87.25 239.5625 C-88.03890625 239.66691406 -88.8278125 239.77132812 -89.640625 239.87890625 C-92.00532874 240.00027349 -93.7511037 239.69633257 -96 239 C-94.61041429 233.75653865 -92.80642755 228.86398479 -90.6875 223.875 C-88.57355396 218.8670185 -86.54570491 213.83911631 -84.61328125 208.7578125 C-81.64687858 201.00022177 -78.3799558 193.38129755 -75.10546875 185.75 C-72.29918107 179.17301028 -69.6321683 172.56090491 -67.09570312 165.875 C-66.09085454 163.23839194 -65.05576577 160.61656755 -64 158 C-64.66 158.33 -65.32 158.66 -66 159 C-67.77787843 159.09655452 -69.55934656 159.13075463 -71.33984375 159.1328125 C-72.40267578 159.13410156 -73.46550781 159.13539063 -74.56054688 159.13671875 C-75.67494141 159.13285156 -76.78933594 159.12898437 -77.9375 159.125 C-79.04802734 159.12886719 -80.15855469 159.13273438 -81.30273438 159.13671875 C-82.89891602 159.13478516 -82.89891602 159.13478516 -84.52734375 159.1328125 C-85.50437256 159.13168457 -86.48140137 159.13055664 -87.48803711 159.12939453 C-90 159 -90 159 -93 158 C-92.67 158.99 -92.34 159.98 -92 161 C-92.495 163.97 -92.495 163.97 -93 167 C-110.82 167 -128.64 167 -147 167 C-147.99 170.3 -148.98 173.6 -150 177 C-151.25104475 180.13284638 -152.52666616 183.22364248 -153.875 186.3125 C-154.59265865 187.98633135 -155.30880418 189.66081227 -156.0234375 191.3359375 C-156.53729004 192.54008301 -156.53729004 192.54008301 -157.06152344 193.76855469 C-158.6881471 197.63622906 -160.16662441 201.55716243 -161.65234375 205.48046875 C-163.4159766 210.08636207 -165.23530999 214.66900962 -167.0625 219.25 C-167.39121094 220.07814209 -167.71992188 220.90628418 -168.05859375 221.75952148 C-174.24869012 237.24869012 -174.24869012 237.24869012 -176 239 C-177.85287502 239.07226502 -179.70833878 239.0838122 -181.5625 239.0625 C-182.57441406 239.05347656 -183.58632812 239.04445313 -184.62890625 239.03515625 C-185.80259766 239.01775391 -185.80259766 239.01775391 -187 239 C-186.44471524 233.83717388 -185.2614628 229.64934224 -183.25 224.8125 C-182.8468457 223.83422241 -182.8468457 223.83422241 -182.43554688 222.83618164 C-181.63077756 220.88775523 -180.81578045 218.94383596 -180 217 C-179.57203125 215.96101562 -179.1440625 214.92203125 -178.703125 213.8515625 C-176.52069988 208.5655588 -174.27088719 203.31103008 -172 198.0625 C-169.66383035 192.62527268 -167.48904787 187.14823634 -165.38671875 181.6171875 C-160.2371376 168.18475891 -154.732104 154.89420742 -149.2149353 141.60968018 C-145.67904204 133.0944693 -142.2021948 124.55893309 -138.8034668 115.98803711 C-136.2237536 109.50396617 -133.51685487 103.07772724 -130.7902832 96.65429688 C-128.50033738 91.24056318 -126.35036735 85.78692378 -124.26953125 80.2890625 C-121.35292583 72.73281092 -118.18869449 65.27340037 -115.08398438 57.79296875 C-110.69949349 47.22136975 -106.46401769 36.61143847 -102.46484375 25.88671875 C-102.06857788 24.82529663 -102.06857788 24.82529663 -101.66430664 23.74243164 C-101.15510754 22.37642985 -100.64765272 21.00977597 -100.14233398 19.64233398 C-98.55179323 15.36656376 -96.82498019 11.17909665 -95 7 C-94.01 7 -93.02 7 -92 7 C-91.8520151 10.89541787 -91.76504929 14.79009412 -91.6875 18.6875 C-91.64560547 19.77095703 -91.60371094 20.85441406 -91.56054688 21.97070312 C-91.43132824 30.68003912 -93.56292794 37.08013621 -97 45 C-98.00480538 47.54503215 -98.96972328 50.1047629 -99.9375 52.6640625 C-100.44442359 53.98471655 -100.95224157 55.30502762 -101.4609375 56.625 C-102.23261207 58.62919672 -103.00333624 60.63372326 -103.77050781 62.63964844 C-106.57131428 69.96018072 -109.48376237 77.17805623 -112.7902832 84.28881836 C-114.58224454 88.3049093 -116.11376527 92.41071632 -117.66943359 96.52294922 C-119.85080367 102.22332951 -122.17015194 107.86754713 -124.47766113 113.5177002 C-125.90632911 117.01698625 -127.32975318 120.51840587 -128.75390625 124.01953125 C-129.17342056 125.05048416 -129.17342056 125.05048416 -129.60140991 126.1022644 C-131.99340193 131.98117251 -134.38057648 137.86195179 -136.75 143.75 C-137.23400269 144.94411499 -137.23400269 144.94411499 -137.7277832 146.16235352 C-139.03342285 149.4161478 -140.20445907 152.58650879 -141 156 C-114.97804692 156.11800104 -89.0055679 155.98529761 -63 155 C-62.21026283 153.28476293 -61.42299216 151.56839013 -60.63671875 149.8515625 C-60.19803467 148.89588379 -59.75935059 147.94020508 -59.30737305 146.95556641 C-57.59104585 143.07548105 -56.09702044 139.12792708 -54.59765625 135.16015625 C-52.38524227 129.35012552 -50.0590827 123.5845947 -47.75 117.8125 C-47.30116455 116.68827637 -46.8523291 115.56405273 -46.38989258 114.40576172 C-45.75603638 112.82239014 -45.75603638 112.82239014 -45.109375 111.20703125 C-44.72749023 110.2528833 -44.34560547 109.29873535 -43.95214844 108.31567383 C-43 106 -43 106 -42 104 C-42.61488281 103.98582031 -43.22976562 103.97164063 -43.86328125 103.95703125 C-44.67152344 103.90933594 -45.47976562 103.86164063 -46.3125 103.8125 C-47.11300781 103.77769531 -47.91351563 103.74289063 -48.73828125 103.70703125 C-51 103 -51 103 -52.66796875 100.81640625 C-54.0226632 97.95208162 -55.0573853 95.14922215 -56 92.125 C-57.06695761 88.77752231 -58.1428108 85.69240751 -59.625 82.5 C-63.95549861 71.47691263 -63.21904693 59.63382609 -63 48 C-62.01 48 -61.02 48 -60 48 C-59.61070312 49.08152344 -59.22140625 50.16304687 -58.8203125 51.27734375 C-54.90800404 62.06001851 -50.76024561 72.73282296 -46.46533203 83.36889648 C-44.23716699 88.88804626 -42.05983397 94.41570985 -40 100 C-39.6596875 98.98164063 -39.319375 97.96328125 -38.96875 96.9140625 C-36.01071438 88.22165315 -32.69388566 79.81456475 -28.89477539 71.45581055 C-26.48880486 66.15023369 -24.32110385 60.79675202 -22.27734375 55.33984375 C-20.75612852 51.36235439 -19.13374245 47.43229408 -17.5 43.5 C-15.47800196 38.62635603 -13.49555746 33.74690157 -11.625 28.8125 C-7.94772359 19.1302436 -3.94405716 9.57584588 0 0 Z M6 15 C4.08180164 19.70771079 2.16532295 24.4161188 0.25 29.125 C-0.04178131 29.84228271 -0.33356262 30.55956543 -0.63418579 31.29858398 C-5.10971465 42.30483901 -9.53536824 53.33005004 -13.93154907 64.36819458 C-17.76058003 73.97536074 -21.69689777 83.53309074 -25.69946289 93.0690918 C-28.15091295 98.92102109 -30.49083971 104.8001381 -32.7265625 110.73828125 C-34.40138028 115.02807527 -36.20014304 119.2614403 -38 123.5 C-40.75788015 129.99531419 -43.40590309 136.50861665 -45.90234375 143.109375 C-47.54292692 147.42977195 -49.26871175 151.71530339 -51 156 C-50.01592689 157.20495909 -50.01592689 157.20495909 -48.14233398 157.11352539 C-47.35157471 157.10828857 -46.56081543 157.10305176 -45.74609375 157.09765625 C-44.46508789 157.09282227 -44.46508789 157.09282227 -43.15820312 157.08789062 C-42.26037109 157.07951172 -41.36253906 157.07113281 -40.4375 157.0625 C-39.53580078 157.05798828 -38.63410156 157.05347656 -37.70507812 157.04882812 C-35.46998686 157.03700225 -33.23502563 157.0205222 -31 157 C-31.72277964 152.34310331 -33.35984528 148.17777485 -35.0625 143.8125 C-38 136.26372998 -38 136.26372998 -38 134 C-34.37 134 -30.74 134 -27 134 C-26.01 137.465 -26.01 137.465 -25 141 C-23.02 146.28 -21.04 151.56 -19 157 C7.07 157 33.14 157 60 157 C59.07728084 152.38640418 57.64387678 148.47161353 55.8125 144.1875 C53.43191059 138.51649119 51.13426803 132.83088985 49 127.0625 C46.88656315 121.35331958 44.71769873 115.66953712 42.5 110 C40.03841929 103.70160503 37.63128874 97.38593974 35.27392578 91.04785156 C33.36317518 85.92627818 31.37445492 80.83749014 29.375 75.75 C27.04444439 69.81367911 24.91906012 63.85492215 22.95703125 57.78515625 C21.58766179 53.80001165 19.9404146 49.94932413 18.2890625 46.07421875 C16.49356624 41.79223222 14.84878749 37.45706236 13.19921875 33.1171875 C11.79182811 29.45888869 10.30791233 25.83533115 8.796875 22.21875 C7.94000303 19.83294962 7.43903003 17.49369055 7 15 C6.67 15 6.34 15 6 15 Z " fill="#D0D0D0" transform="translate(291,109)"/>
<path d="M0 0 C0.99 0 1.98 0 3 0 C3.38929688 1.08152344 3.77859375 2.16304687 4.1796875 3.27734375 C8.09199596 14.06001851 12.23975439 24.73282296 16.53466797 35.36889648 C18.31096182 39.76876438 20.08065168 44.16564644 21.734375 48.61328125 C22.86097705 51.81013456 22.86097705 51.81013456 24 54 C23.5625 56.125 23.5625 56.125 23 58 C22.34 58 21.68 58 21 58 C21 57.34 21 56.68 21 56 C20.38511719 55.98582031 19.77023438 55.97164062 19.13671875 55.95703125 C18.32847656 55.90933594 17.52023438 55.86164063 16.6875 55.8125 C15.88699219 55.77769531 15.08648437 55.74289063 14.26171875 55.70703125 C12 55 12 55 10.33203125 52.81640625 C8.9773368 49.95208162 7.9426147 47.14922215 7 44.125 C5.93304239 40.77752231 4.8571892 37.69240751 3.375 34.5 C-0.95549861 23.47691263 -0.21904693 11.63382609 0 0 Z " fill="#CECECE" transform="translate(228,157)"/>
<path d="M0 0 C0.495 1.98 0.495 1.98 1 4 C-2.64284425 5.66101162 -5.49744919 6.25598419 -9.4921875 6.265625 C-11.04486328 6.26949219 -11.04486328 6.26949219 -12.62890625 6.2734375 C-13.70011719 6.26570313 -14.77132812 6.25796875 -15.875 6.25 C-16.93847656 6.25773437 -18.00195312 6.26546875 -19.09765625 6.2734375 C-24.78830245 6.25929925 -29.63188029 5.92701733 -35 4 C-35 3.67 -35 3.34 -35 3 C-23.78 2.67 -12.56 2.34 -1 2 C-0.67 1.34 -0.34 0.68 0 0 Z " fill="#6B6B6B" transform="translate(229,262)"/>
<path d="M0 0 C0.99 0 1.98 0 3 0 C5.125 4.625 5.125 4.625 4 8 C3.67 7.34 3.34 6.68 3 6 C2.67 13.26 2.34 20.52 2 28 C1.67 28 1.34 28 1 28 C0.17961409 21.598406 -0.12754513 15.38697499 -0.0625 8.9375 C-0.05798828 8.07189453 -0.05347656 7.20628906 -0.04882812 6.31445312 C-0.03719913 4.20960461 -0.01927073 2.10479242 0 0 Z " fill="#2B2B2B" transform="translate(228,157)"/>
<path d="M0 0 C2.83374881 3.20336822 3.5205537 5.78087253 4 10 C1 8 1 8 0.48828125 6.0546875 C0.32552083 4.03645833 0.16276042 2.01822917 0 0 Z " fill="#555555" transform="translate(379,307)"/>
</svg>
